<svg xmlns="http://www.w3.org/2000/svg" width="40" height="32" viewBox="0 0 40 32" fill="none">
<path d="M23.7546 14.673C23.3557 15.0747 23.0502 15.5596 22.8599 16.093C22.6696 16.6265 22.5992 17.1953 22.6536 17.7591L22.6346 17.7402C22.6906 18.4039 22.6012 19.0717 22.3726 19.6972C22.1441 20.3227 21.782 20.8907 21.3116 21.3617C20.8411 21.8326 20.2737 22.1951 19.6487 22.4238C19.0239 22.6525 18.3567 22.7421 17.6937 22.686L17.7127 22.705C16.9197 22.6311 16.1232 22.8038 15.4317 23.1997C14.7404 23.5956 14.1878 24.1952 13.8494 24.9169C13.5109 25.6387 13.403 26.4473 13.5405 27.2327C13.6781 28.018 14.0542 28.7417 14.6176 29.3052C15.1811 29.8687 15.9044 30.2445 16.689 30.3814C17.4738 30.5184 18.2814 30.4097 19.0021 30.0703C19.7228 29.7308 20.3213 29.1772 20.7162 28.4847C21.111 27.7923 21.2829 26.9949 21.2084 26.201L21.2284 26.22C21.1724 25.5564 21.2617 24.8885 21.4903 24.2629C21.7188 23.6375 22.081 23.0695 22.5514 22.5985C23.0219 22.1276 23.5893 21.765 24.2142 21.5364C24.8391 21.3076 25.5062 21.2181 26.1693 21.2741L26.1493 21.2552C26.797 21.3134 27.4491 21.2071 28.045 20.946C28.6407 20.6849 29.1612 20.2775 29.5578 19.7615C29.9544 19.2455 30.2146 18.6376 30.314 17.9942C30.4134 17.3507 30.349 16.6926 30.1267 16.0807C29.9044 15.4688 29.5313 14.923 29.0422 14.4939C28.5531 14.0647 27.9636 13.7661 27.3285 13.6258C26.6933 13.4854 26.033 13.5077 25.4089 13.6908C24.7847 13.8739 24.2168 14.2117 23.7578 14.673H23.7546Z" fill="#FF7E3E"/>
<path d="M15.9896 20.2201L15.9696 20.2012C16.533 20.2579 17.1021 20.1887 17.6356 19.9984C18.1691 19.8081 18.6537 19.5016 19.0543 19.1009C19.4548 18.7002 19.7615 18.2153 19.952 17.6814C20.1425 17.1476 20.2121 16.5781 20.1557 16.0139L20.1757 16.0329C20.1197 15.3692 20.2092 14.7014 20.4376 14.0758C20.6661 13.4504 21.0283 12.8824 21.4987 12.4114C21.9693 11.9405 22.5367 11.5779 23.1615 11.3493C23.7865 11.1205 24.4536 11.031 25.1166 11.087L25.0966 11.0681C25.8898 11.1427 26.6865 10.9705 27.3782 10.5751C28.0701 10.1797 28.6231 9.58027 28.9621 8.85866C29.301 8.13705 29.4093 7.32834 29.2723 6.54283C29.1352 5.75732 28.7595 5.03326 28.1961 4.46941C27.6329 3.90557 26.9095 3.52937 26.1248 3.39216C25.3401 3.25495 24.5322 3.36338 23.8113 3.70268C23.0904 4.04196 22.4917 4.59561 22.0966 5.28808C21.7016 5.98054 21.5296 6.77813 21.6041 7.57204L21.5852 7.55202C21.6413 8.21571 21.552 8.88366 21.3236 9.50924C21.0952 10.1348 20.733 10.7029 20.2626 11.174C19.7921 11.6448 19.2245 12.0074 18.5996 12.236C17.9746 12.4647 17.3073 12.554 16.6443 12.4979L16.6632 12.5179C16.0998 12.4611 15.5306 12.5303 14.9972 12.7206C14.4637 12.9108 13.9791 13.2174 13.5785 13.6181C13.1779 14.0188 12.8713 14.5037 12.6807 15.0376C12.4903 15.5715 12.4207 16.141 12.4771 16.7051L12.4581 16.6862C12.5139 17.3498 12.4243 18.0176 12.1958 18.643C11.9672 19.2684 11.6051 19.8364 11.1347 20.3073C10.6642 20.7781 10.0968 21.1406 9.47206 21.3695C8.84728 21.5982 8.18016 21.6879 7.51722 21.632L7.53617 21.651C6.74306 21.5764 5.94627 21.7486 5.2545 22.144C4.56273 22.5394 4.00964 23.1388 3.6707 23.8604C3.33174 24.5821 3.22341 25.3907 3.36049 26.1762C3.49757 26.9617 3.87339 27.6858 4.43666 28.2496C4.99995 28.8135 5.72327 29.1897 6.50799 29.3269C7.29271 29.4641 8.10061 29.3556 8.8215 29.0164C9.54238 28.6771 10.1412 28.1235 10.5362 27.431C10.9312 26.7385 11.1032 25.941 11.0287 25.147L11.0487 25.166C10.9927 24.5023 11.0822 23.8345 11.3107 23.2089C11.5391 22.5835 11.9013 22.0154 12.3717 21.5445C12.8422 21.0736 13.4097 20.711 14.0345 20.4824C14.6594 20.2536 15.3265 20.1641 15.9896 20.2201Z" fill="#FF7E3E"/>
<path d="M8.93463 18.1052C9.33359 17.7036 9.63903 17.2187 9.82917 16.6852C10.0193 16.1517 10.0895 15.5828 10.0346 15.019L10.0546 15.038C9.99859 14.3742 10.088 13.7061 10.3166 13.0804C10.5453 12.4548 10.9076 11.8866 11.3783 11.4157C11.8491 10.9447 12.4167 10.5822 13.0419 10.3537C13.667 10.125 14.3345 10.0358 14.9976 10.0922L14.9776 10.0732C15.7704 10.1475 16.5669 9.97528 17.2584 9.57991C17.9498 9.18455 18.5025 8.5853 18.8414 7.86391C19.1801 7.14252 19.2883 6.3341 19.1512 5.54888C19.0142 4.76367 18.6384 4.03989 18.0754 3.47625C17.5123 2.91261 16.7892 2.53653 16.0048 2.39933C15.2204 2.26211 14.4128 2.37045 13.6922 2.70953C12.9714 3.04862 12.3728 3.60197 11.9779 4.29412C11.5829 4.98626 11.4108 5.78352 11.4851 6.57716L11.4661 6.55819C11.5221 7.22184 11.4327 7.88972 11.2041 8.51521C10.9756 9.1407 10.6135 9.70874 10.1431 10.1797C9.67262 10.6506 9.10514 11.0131 8.48028 11.2418C7.85542 11.4705 7.18822 11.5601 6.52524 11.5041L6.54419 11.523C5.89639 11.4649 5.2444 11.5714 4.64865 11.8326C4.0529 12.0938 3.53266 12.5013 3.13613 13.0174C2.73961 13.5334 2.47964 14.1414 2.3803 14.7847C2.28096 15.4282 2.34548 16.0863 2.56786 16.698C2.79024 17.3099 3.16331 17.8556 3.65248 18.2846C4.14166 18.7138 4.73111 19.0123 5.36623 19.1526C6.00133 19.2929 6.66155 19.2704 7.28571 19.0874C7.90986 18.9043 8.47773 18.5665 8.93673 18.1052H8.93463Z" fill="#FF7E3E"/>
</svg>